<svg width="24" height="24" viewBox="0 0 24 24" fill="none" xmlns="http://www.w3.org/2000/svg">
<g clip-path="url(#clip0_167_2)">
<path fill-rule="evenodd" clip-rule="evenodd" d="M20.4854 3.47447C17.9215 2.34276 14.7837 1.92323 12 1.92323C9.21628 1.92323 6.07852 2.34276 3.51469 3.47447C2.04956 4.12125 0 5.38561 0 7.22034C0 7.82184 0.744422 9.43059 0.992953 10.0003L1.0088 10.0366C1.12462 10.3083 1.33511 10.5286 1.60115 10.6567C1.8672 10.7848 2.1707 10.8119 2.45527 10.7331L5.81986 9.83166C6.13482 9.74666 6.40324 9.5403 6.56634 9.25777C6.72944 8.97524 6.7739 8.63959 6.69 8.32434L6.62845 8.09437C6.55391 7.81605 6.53925 7.52508 6.58543 7.24067C6.63162 6.95627 6.7376 6.68489 6.89639 6.44446C7.05518 6.20403 7.26316 6.00001 7.5066 5.84587C7.75003 5.69174 8.0234 5.59099 8.30864 5.55028C10.7578 5.20971 13.2423 5.20971 15.6915 5.55028C15.9767 5.59095 16.2501 5.69168 16.4936 5.84579C16.737 5.99991 16.945 6.20392 17.1039 6.44435C17.2627 6.68478 17.3687 6.95617 17.4149 7.24059C17.4611 7.52501 17.4464 7.81599 17.3719 8.09433L17.3103 8.3243C17.2264 8.63953 17.2708 8.97518 17.4339 9.25771C17.597 9.54025 17.8654 9.74663 18.1803 9.83166L21.545 10.7331C21.6516 10.7619 21.7616 10.7766 21.8721 10.7768C22.1107 10.7767 22.344 10.7065 22.543 10.5748C22.742 10.4432 22.8979 10.256 22.9914 10.0365L23.0075 9.9997C23.2559 9.43036 24.0002 7.82123 24.0002 7.22034C24.0002 5.38556 21.9508 4.12125 20.4856 3.47447H20.4854ZM21.9119 15.9915C22.4285 16.3164 22.6103 16.8952 22.6103 17.4818V20.7508C22.6097 21.1023 22.4697 21.4393 22.2211 21.6879C21.9724 21.9364 21.6354 22.0763 21.2838 22.0768H2.71608C2.36455 22.0762 2.02758 21.9363 1.77898 21.6878C1.53039 21.4392 1.39044 21.1023 1.3898 20.7508V17.4818C1.3898 16.8952 1.57162 16.3163 2.08823 15.9915L9.4523 11.3606V9.45211C9.45262 9.29788 9.51402 9.15007 9.62307 9.04101C9.73212 8.93195 9.87993 8.87054 10.0342 8.8702H13.9663C14.1205 8.8705 14.2683 8.9319 14.3774 9.04097C14.4865 9.15003 14.5479 9.29787 14.5482 9.45211V11.3606L21.9122 15.9915H21.9119ZM12 12.7118C11.2545 12.7119 10.5257 12.933 9.90584 13.3472C9.28597 13.7614 8.80285 14.3501 8.51758 15.0389C8.2323 15.7277 8.15767 16.4856 8.30314 17.2168C8.4486 17.948 8.80762 18.6196 9.3348 19.1468C9.86198 19.6739 10.5336 20.0329 11.2648 20.1783C11.996 20.3238 12.7539 20.2491 13.4427 19.9638C14.1315 19.6785 14.7202 19.1953 15.1344 18.5754C15.5485 17.9556 15.7696 17.2268 15.7696 16.4812C15.7685 15.4819 15.3709 14.5237 14.6642 13.8171C13.9576 13.1104 12.9994 12.7129 12 12.7118ZM12 18.6509C12.4291 18.6509 12.8485 18.5236 13.2052 18.2852C13.5619 18.0468 13.8399 17.708 14.0041 17.3116C14.1682 16.9151 14.2112 16.479 14.1274 16.0582C14.0437 15.6374 13.8371 15.2508 13.5337 14.9475C13.2303 14.6441 12.8437 14.4375 12.4229 14.3538C12.0021 14.2701 11.5659 14.3131 11.1695 14.4773C10.7731 14.6415 10.4343 14.9196 10.196 15.2763C9.95762 15.6331 9.83039 16.0525 9.83039 16.4815C9.83107 17.0567 10.0599 17.6081 10.4666 18.0148C10.8734 18.4214 11.4248 18.6501 12 18.6507V18.6509Z" fill="#4AC959"/>
</g>
<defs>
<clipPath id="clip0_167_2">
<rect width="24" height="24" fill="white"/>
</clipPath>
</defs>
</svg>
